<?xml version="1.0" encoding="UTF-8"?>
<svg id="Calque_1" xmlns="http://www.w3.org/2000/svg" viewBox="0 0 360.18 277.18">
  <defs>
    <style>
      .cls-1 {
        fill: #f4f6f7;
      }

      .cls-2 {
        fill: #9ba5a7;
      }

      .cls-3 {
        fill: #192327;
      }

      .cls-4 {
        fill: #3e78bc;
      }

      .cls-5 {
        fill: #f8f9fa;
      }

      .cls-6 {
        fill: #caccce;
      }

      .cls-7 {
        fill: #1d282c;
      }

      .cls-8 {
        fill: #57a3da;
      }

      .cls-9 {
        fill: #d9dbdc;
      }

      .cls-10 {
        fill: #eceff0;
      }

      .cls-11 {
        fill: #2660ab;
      }

      .cls-12 {
        fill: #cdcfcf;
      }

      .cls-13 {
        fill: #1f2a2f;
      }

      .cls-14 {
        fill: #d0d2d3;
      }

      .cls-15 {
        fill: #c6c8c9;
      }

      .cls-16 {
        fill: #448ecc;
      }

      .cls-17 {
        fill: #346bb3;
      }

      .cls-18 {
        fill: #40525d;
      }

      .cls-19 {
        fill: #d7d9da;
      }

      .cls-20 {
        fill: #e7e9ea;
      }

      .cls-21 {
        fill: #e2e4e6;
      }

      .cls-22 {
        fill: #dee0e1;
      }

      .cls-23 {
        fill: #dcdede;
      }

      .cls-24 {
        fill: #5d6d77;
      }

      .cls-25 {
        fill: #2c393e;
      }

      .cls-26 {
        fill: #242f34;
      }

      .cls-27 {
        fill: #4486c6;
      }
    </style>
  </defs>
  <path class="cls-15" d="M360.18,94.01c-4.04-3-4.04-5,0-8v8Z"/>
  <path class="cls-8" d="M1.17,217.87h15.17c0,14.04,0,27.59,0,41.15-.39,5.92-.78,11.84-1.18,17.76-.03-.29-.06-.58-.11-.87-.02-4.28-.03-8.57-.05-12.85,0-4.33,0-8.66-.01-12.99,0-2.67,0-5.33.01-8,0-3.34.02-6.68.02-10.01.02-2.33-.16-4.69.12-6.98.58-4.73-1.01-6.99-6.01-5.91-9.52-.35-7.77-.24-7.91,7.43-.03,1.83.09,3.66.14,5.49l.02,12.99c-.1,4.3-.19,8.61-.29,12.91-.25.03-.49.06-.74.09-.12-2.35-.23-4.7-.35-7.05.14-10.96.28-21.92.42-32.88.27-.02.52-.11.75-.27Z"/>
  <path class="cls-3" d="M284.17,277.15c-5.29-.06-10.58-.12-15.88-.19-.49-.65-.97-1.3-1.46-1.95-3.73-5.39-7.46-10.77-11.48-16.58-4.17,5.54-7.91,10.74-11.94,15.7-1.04,1.29-2.92,2.5-4.5,2.63-4.45.35-8.95.12-14.59.12,3.84-5.69,7.29-10.8,10.74-15.92,3.71-4.8,7.43-9.6,11.15-14.4-2.11-2.69-4.03-5.14-5.95-7.59-4.67-6.4-9.34-12.79-14.01-19.19-.02-.5-.03-1-.05-1.5.68.02,1.37.03,2.05.05,5.98.64,11.13,5.25,17.57,3.68,3.18,4.14,6.35,8.27,9.85,12.82,3.09-4.93,5.87-9.36,8.65-13.79.67-.58,1.34-1.15,2.01-1.73,3.29-.42,6.57-.84,9.86-1.27,2.94.09,5.88.18,8.83.27-6.77,9.36-13.53,18.73-20.41,28.25,6.17,8.59,12.32,17.15,18.46,25.7.68.92,1.37,1.84,2.05,2.76.27.35.54.71.81,1.06-.58.35-1.16.7-1.74,1.05Z"/>
  <path class="cls-16" d="M.35,258.06c.25-.04.49-.07.74-.09.08.36.16.73.25,1.09-.05,4.31.01,8.63-.18,12.94-.13,2.93.82,4.31,3.95,4.1,3.31-.23,6.63-.15,9.95-.2.05.29.08.58.11.87-4.66.13-9.32.27-13.98.41-.36-.39-.72-.78-1.08-1.18.08-5.98.16-11.96.25-17.94Z"/>
  <path class="cls-23" d="M234.15,23.08c-1.33-.67-2.66-1.35-3.99-2.02,2.73-2.1,3.5-.32,3.99,2.02Z"/>
  <path class="cls-12" d="M311.07,126.13l-3.07.75c-.14-.39-.29-.78-.43-1.17.99-.46,1.99-.91,2.98-1.37.17.59.35,1.19.52,1.78Z"/>
  <path class="cls-11" d="M77.25,249.01c.2-1.79.41-3.58.69-6.03,7.81,0,15.54,0,23.26,0,0,4.25,0,8.51,0,13.07h-23.43c-.19-2.51-.35-4.77-.52-7.04Z"/>
  <path class="cls-13" d="M123.99,275.96c-1.94.37-3.87.74-5.81,1.12-2.95-.04-5.9-.09-8.85-.13-.11-.32-.09-.64.05-.95,4.87-.01,9.74-.03,14.6-.04Z"/>
  <path class="cls-9" d="M109.39,276c-.14.31-.16.63-.05.95-.4-.32-.8-.64-1.2-.96.28-4.33.55-8.67.83-13,.14,4.34.28,8.67.42,13.01Z"/>
  <path class="cls-3" d="M109.39,276c-.14-4.34-.28-8.67-.42-13.01,0-1.98.01-3.97.02-5.95.13-7,.25-14.01.38-21.01,3.59-1.4,6.51-.33,9.47,1.98,1.24.97,3.44.72,5.21,1.02.12,1.79.24,3.57.38,5.73,4.83,0,9.47.05,14.11-.01,3.9-.05,7.51-.66,7.67-5.73.12-3.88-2.87-6.69-7.54-6.93-3.82-.2-7.65-.17-11.47-.24,2.69-4.15,5.33-8.33,8.13-12.4.31-.45,1.53-.33,2.34-.37,1.63-.09,3.26-.12,4.9-.17,3.59,1.25,7.18,2.5,10.77,3.75-.32,1.54-.63,3.09-1.11,5.43,2.38-.44,4.07-.74,5.75-1.05,1.06,1.67,2.11,3.34,3.17,5.01.02.99.04,1.97.06,2.96.03,2.07.06,4.15.09,6.22,0,.93,0,1.85-.01,2.78-.27.19-.33.43-.2.73-.22.42-.44.84-.67,1.26-2.93,3.45-5.85,6.9-9.21,10.86.2.28.93,1.28,1.66,2.29,4.12,5.68,8.24,11.35,12.88,17.75-6.51,0-12.08.07-17.64-.08-.79-.02-1.7-1.04-2.29-1.8-3.24-4.18-6.69-8.25-9.52-12.71-2.79-4.4-6.19-5.99-11.1-4.26-.28,6-.56,12-.83,18,0,0-.36-.08-.36-.08-4.87.01-9.74.03-14.6.04Z"/>
  <path class="cls-1" d="M161.19,235c-.02-.99-.04-1.97-.06-2.96,2.9-1.09,5.26-4.54,8.98-2.04-.01,5.99-.02,11.98-.03,17.97-2.39-.87-4.79-1.74-7.78-2.84.34,1.87.69,3.09.76,4.33.22,3.86-.02,7.33-5.24,7.72-1.69.12-3.31,1.28-4.97,1.96-.73-1-1.46-2.01-1.66-2.29,3.36-3.96,6.29-7.41,9.21-10.86.22-.42.44-.84.67-1.26-.13-.3-.07-.54.2-.73.26-1.11.52-2.22.78-3.33-.29-1.89-.58-3.79-.86-5.68Z"/>
  <path class="cls-21" d="M170.08,247.97c.01-5.99.02-11.98.03-17.97,0-2,.02-4,.03-5.99,0,0,.42-.02.42-.02,0,0,.42,0,.42,0,.12,1.68.24,3.35.35,5.03,0,15.95,0,31.9,0,47.85,0,0-.24.19-.24.19-.31-4.56-.75-9.12-.9-13.68-.17-5.13-.08-10.27-.1-15.4Z"/>
  <path class="cls-21" d="M124.35,276.04c.28-6,.56-12,.83-18-.28,6-.56,12-.83,18Z"/>
  <path class="cls-3" d="M171.32,276.87c0-15.95,0-31.9,0-47.85,5.93-1.79,13.45-1.11,15.08-10.02h33.78s0,.02,0,.02c-.79.59-1.61,1.16-2.37,1.78-1.21.99-3.01,1.82-3.44,3.1-.82,2.44-.86,5.15-1.22,7.75-1.34,0-2.67,0-4.01,0-7.66.06-15.31.13-22.97.19,0,2.75,0,5.5,0,8.25,2.99.08,5.99.16,8.98.25,1.35,0,2.7-.01,4.05-.02,4.06.25,8.13.82,12.17.64,3.24-.14,4.9.93,5.42,4.01.16,2.03.31,4.05.47,6.08l-.4-.07c-.23.65-.46,1.29-.7,1.94h-29.84v9.08c1.47.32,2.94.88,4.41.9,10.13.14,20.27.17,30.41.23.01,1.96.02,3.92.04,5.88-.29,2.57-.57,5.15-.9,8.07h-9.11c-5.66-.01-11.33-.03-16.99-.04-7.62-.06-15.24-.11-22.86-.17Z"/>
  <path class="cls-11" d="M43.27,275.91c-.01-3.96-.03-7.92-.04-11.88.57-.28,1.33-.42,1.69-.88,1.81-2.26,3.18-5.94,5.37-6.5,1.8-.46,4.53,2.77,6.84,4.37.02,3.82-.03,7.63.09,11.45.08,2.54-.93,3.63-3.51,3.53-3.48-.13-6.97-.07-10.45-.1Z"/>
  <path class="cls-17" d="M57.14,261.03c-2.32-1.6-5.05-4.83-6.84-4.37-2.19.56-3.56,4.24-5.37,6.5-.36.45-1.12.59-1.69.88,0-6.33.01-12.66.02-18.99.82-.47,1.77-.8,2.45-1.43,1.41-1.3,2.69-2.76,4.02-4.16,1.49,1.85,3,3.69,4.46,5.56,1.02,1.31,1.99,2.67,2.97,4.01,0,4,0,8,0,11.99Z"/>
  <path class="cls-4" d="M57.15,249.04c-.99-1.34-1.95-2.7-2.97-4.01-1.46-1.87-2.97-3.71-4.46-5.56-1.33,1.39-2.6,2.85-4.02,4.16-.68.63-1.62.96-2.45,1.43-.03-4.28-.07-8.56-.1-12.85,0,0,.37-.16.37-.16.72-.36,1.54-.6,2.15-1.1,5.41-4.41,6.81-3.9,8.72,2.88.52,1.84,1.85,3.46,2.8,5.18.02.98.03,1.95.05,2.93-.03,2.37-.06,4.74-.1,7.1Z"/>
  <path class="cls-8" d="M24.17,217.82h52.65v14.27c-6.18,0-12.41,0-18.65,0,3.54-.36,7.22-.25,10.57-1.23,2.33-.68,5.4-2.5,6.02-4.48,1.01-3.24-3.03-7.29-6.22-7.3-13.15-.03-26.3.18-39.44-.15-4.68-.12-5.11,1.98-4.98,5.68.12,3.64-.47,6.95,5.19,6.55,4.69-.33,9.46.55,14.2.89,0,0-.38.16-.37.16,0,0-.48,0-.48,0,0,0-.47.12-.47.12-5.09-.08-10.18-.29-15.27-.2-2.75.05-3.99-.91-3.72-3.7.35-3.53.65-7.06.97-10.59Z"/>
  <path class="cls-27" d="M57.15,249.04c.03-2.37.06-4.74.1-7.1.28.04.56.09.84.14.14,10.98.28,21.97.42,32.95-1.64.65-3.23,1.64-4.92,1.88-2.43.36-4.93.18-7.4.23-.97-.41-1.94-.81-2.91-1.22,3.48.02,6.97-.03,10.45.1,2.58.1,3.59-1,3.51-3.53-.12-3.81-.07-7.63-.09-11.45,0-4,0-7.99,0-11.99Z"/>
  <path class="cls-3" d="M182.19,71c.34.13.68.26,1.02.39.31.21.62.42.93.64,13.5,6.26,27.32,11.62,42.5,10.84,7.37-.38,14.67-2.16,22.55-3.39-2.83,8.74-7.64,16.21-16.65,19.73-5.16,2.02-10.87,3.2-16.41,3.52-14.94.88-29.91,1.14-44.87,1.58-11.69.34-22.82-1.56-32.82-8.2-7.04-4.67-11.9-10.87-14.29-18.99-.19-.36-.38-.72-.57-1.08-.17-.84-.34-1.69-.52-2.53-.18-.6-.37-1.2-.55-1.8-.28-.23-.33-.5-.15-.81,1.41.37,2.8.95,4.23,1.07,8.62.73,17.89-.53,23.81,8.13.26.38.88.5,1.19.86,1.45,1.67,2.85,3.38,4.26,5.07,1.86,3.08,3.73,2.88,5.59,0,2.05-.63,4.09-1.26,6.14-1.89,1.03,1.4,1.94,2.94,3.21,4.08.24.21,2.89-1.48,2.79-1.82-.49-1.67-1.52-3.17-2.36-4.73.55-1.35.74-3.14,1.72-3.97,2.92-2.44,6.15-4.5,9.26-6.7ZM186.65,85.21c-1.83-1.82-2.8-3.46-4.12-3.82-.74-.2-3.07,1.99-2.91,2.66.4,1.61,1.85,2.96,2.87,4.42,1.1-.86,2.19-1.71,4.16-3.25ZM147.44,80.75c-1.52,1.98-3.11,3.15-3.07,4.25.04,1.08,1.74,2.11,2.71,3.16.98-1.07,2.48-2.01,2.76-3.24.21-.91-1.18-2.18-2.4-4.18Z"/>
  <path class="cls-13" d="M82.15,204.91c-.99.05-1.98.11-2.98.16-.99-1.88-2.34-3.66-2.86-5.67-.53-2.03-.25-4.27-.32-6.42.45-4.31.89-8.61,1.34-12.92.94-1.05,1.89-2.09,2.83-3.14.04-2.7.08-5.4.12-8.1-1.02-1.28-2.04-2.56-3.06-3.85l-1.06-.91v-.06c-.01-29.81-.07-59.62.05-89.42,0-1.64,1.2-3.49,2.31-4.88,3.16-3.97,6.57-7.75,9.88-11.6,1.27-1.03,2.53-2.06,3.8-3.1.32-.26.64-.52.97-.79.72-.22,1.43-.43,2.15-.65,4.9,2.24,9.82,2.75,14.99.68,1.43-.57,3.3-.07,4.96-.07-.15,1.63-.29,3.26-.44,4.89.02,1.63.04,3.26.06,4.89.13,2.24.27,4.49.4,6.73.18.75.35,1.5.53,2.25.15.96.29,1.92.44,2.88-.03,1.32-.05,2.64-.08,3.97-2.03.35-4.05.69-6.08,1.04-1.84,1.44-3.67,2.88-5.51,4.31-2.22.13-3.06.91-1.34,2.88-.06.66-.12,1.31-.19,1.97-.55.46-1.1.92-1.66,1.39.65.51,1.3,1.02,1.94,1.52l.34.05s.35-.02.35-.02c-.36.66-.71,1.32-1.07,1.98-5.5,3.19-8.03,7.71-6.95,14.24.42,2.54-.05,5.23-.11,7.86-2.18-1-4.36-2-6.54-3-.13-3.67-.25-7.34-.38-11-.05-4.99-.1-9.98-.15-14.97,3.12-3.79,6.24-7.59,9.36-11.38,2.07-.18,4.13-.36,6.2-.53.77-.42,1.54-.85,2.31-1.27,2.05-.65,4.11-1.3,6.16-1.95-1.01-1.83-2.02-3.66-3.04-5.48-.08-.14-.22-.24-.33-.35-3.73-4.9-5.59-5.35-11.83-2.86-1.41-.13-3.05-.77-4.19-.27-1.82.79-3.31,2.34-4.93,3.57,1.17,1.32,2.36,2.63,3.52,3.96.72.82,1.41,1.67,2.11,2.51-2.75,2.73-5.66,5.33-8.18,8.25-1.12,1.3-1.48,3.26-2.19,4.93-.07,1.15-.21,2.3-.21,3.45-.07,35.71-.1,71.43-.23,107.14,0,2.39-.79,4.78-1.21,7.17Z"/>
  <path class="cls-3" d="M232.28,30.76c14.55,9.24,19,23.27,18.81,40.88-7.86,1.34-15.9,2.72-23.95,4.1-1.31,0-2.62,0-3.92,0-10.65-.2-20.77-2.5-30.17-7.65.39-.52.78-1.04,1.16-1.56,5.37-7.48,10.34-9.22,19.46-3.57,4.16,2.58,10.84.05,12.51-4.98-.34-.99-.67-1.99-1.01-2.98-.38-2.32-.76-4.64-1.14-6.96.28-.87,1-1.9.75-2.59-1.68-4.69.04-7.44,4.33-9.62,1.53-.78,2.15-3.33,3.18-5.08ZM231.21,44.69c-3.49,2.45-1.84,4.86.38,6.78,2.15,1.86,4.73,3.23,7.72,5.21-.68-5.67-1.72-10.14-7.14-11.96-.32,0-.64-.02-.95-.03Z"/>
  <path class="cls-26" d="M132.16,17.98c1.64-7.34,6.27-12.14,12.9-15.25.71,2.44,1.42,4.88,2.13,7.32-1.13.95-2.32,1.85-3.38,2.87-7.03,6.72-7.38,17.65-.8,24.48,6.88,7.15,16.92,7.39,23.94.58,9.26-8.99,6.65-22.17-5.75-29.05,2.98-1.3,5.97-2.6,8.95-3.9,5.04,2.83,10.08,5.67,15.11,8.5.34.15.69.3,1.03.45.34-.14.64-.08.91.17,1.02.28,2.05.56,3.07.84,7.97,2.71,15.95,5.41,23.92,8.12.5,2.03,1,4.06,1.5,6.07-1.27.79-2.47,1.54-3.68,2.29-1.28-.2-2.55-.41-3.83-.61-.32-.28-.64-.56-.95-.84-5.67-1.8-11.34-3.6-17.01-5.39-1.09-2.14-2.17-4.28-3.26-6.42-1.59,1.28-3.19,2.55-4.78,3.83-.33-.06-.65-.13-.98-.19-.31-.45-.62-.91-.93-1.36-.35.55-.7,1.1-1.05,1.66-.14,16.51-6.47,25.07-20.74,28.04-11.69,2.44-23.44-5.1-26.39-16.94-.17-.39-.34-.78-.51-1.17-.04-4.03-.07-8.05-.11-12.08.23-.66.46-1.33.68-1.99Z"/>
  <path class="cls-3" d="M43.32,181.7c-4.62-7.82-7.9-16.19-8.02-25.3-.28-21.41-.69-42.84,0-64.23.52-16.17,6.19-31.01,15.81-44.19.69.01,1.38.02,2.07.04.67,2.75,1.13,5.58,2.11,8.21.43,1.14,1.94,1.88,2.95,2.8-.07.31-.16.6-.27.9-.13.45-.26.91-.38,1.36l-.28,1.72c-5.14.18-6.11,3.75-6.06,7.82.04,2.97.57,5.93.91,9.21,1.88-.75,3.5-1.39,5.12-2.03.08,1.59.16,3.18.24,4.77-.25,1.13-.49,2.25-.74,3.38-1.61-.01-3.23-.03-4.84-.04-3.66-2.73-7.47-3.34-10.55.48-3.19,3.97-1.42,7.38,2.23,10.16.36.28.52.82.77,1.25,0,1.34,0,2.68,0,4.02,0,6.34-.02,12.67-.03,19.01-4.78,3.01-7.23,7.08-5.81,12.88.15.41.31.83.46,1.24v.03c.53,1.29,1.07,2.59,1.6,3.88,1.25,1.65,2.5,3.3,3.75,4.95-.01,8.48.07,16.96-.08,25.44-.08,4.09-.61,8.16-.94,12.24Z"/>
  <path class="cls-26" d="M155.84,86.03c-1.42-1.7-2.81-3.41-4.26-5.07-.31-.36-.93-.48-1.19-.86-5.92-8.66-15.19-7.4-23.81-8.13-1.43-.12-2.82-.7-4.23-1.07-2-7-1.81-13.9.92-20.69,2.92-1.62,5.85-3.24,8.77-4.87,2.58,2.47,5.16,4.93,8.19,7.82-1.96.31-3.89.63-5.83.94-.76.22-1.51.45-2.27.67,0,0-.22.21-.22.21-.02,1.67-.03,3.33-.05,5,1.01.64,2.02,1.28,3.04,1.92.75-.2,1.5-.41,2.25-.61.95-.12,1.91-.23,2.86-.35.71-.19,1.42-.39,2.12-.58.68-.09,1.35-.18,2.03-.27,1.4,2.55,2.47,5.38,4.31,7.56,1.21,1.44,3.92,3.11,5.27,2.65,2.83-.97,5.81-2.85,5.06-6.91-.21-1.13-.42-2.27-.63-3.4.68.16,1.37.31,2.05.47.35.17.69.34,1.04.51,6.97,3.34,13.95,6.68,20.92,10.02-3.11,2.21-6.35,4.26-9.26,6.7-.99.83-1.17,2.62-1.72,3.97-1.21.82-2.42,1.65-3.64,2.47-2.05.63-4.09,1.26-6.14,1.89-.83-1.37-1.65-2.74-2.48-4.11-1.04,1.37-2.07,2.74-3.11,4.12Z"/>
  <path class="cls-7" d="M226.16,57.98c-1.67,5.02-8.35,7.55-12.51,4.98-9.12-5.65-14.09-3.91-19.46,3.57-.38.53-.77,1.04-1.16,1.56-9.44-4.33-18.88-8.65-28.88-13.24,9.91-2.23,14.83-9.84,19.33-17.9.24-.95.49-1.89.73-2.84,0,0,.15-.09.15-.09.05-.66.1-1.32.14-1.98-.05-.34-.09-.69-.14-1.03,1.26-.33,2.53-.67,3.79-1,6.03,1.96,12.05,3.91,18.08,5.87-1.47,1.03-3.03,3.05-4.39,2.93-5.55-.5-7.69,2.48-8.66,7.17-1.42.69-2.84,1.37-4.26,2.06-.07.96-.13,1.93-.2,2.89.82.76,1.64,1.51,2.47,2.27.33.02.65.03.98.05.53-.15,1.05-.31,1.58-.46,3.21,2.83,6.46,1.27,9.7.08,4.46.38,5.15-2.09,4.33-5.71,2.21.33,5-2.52,6.6,1.2.05,2.17-.81,4.84,2.8,5.04.38,6.67,5.54,3.96,9,4.58Z"/>
  <path class="cls-13" d="M141.43,162.73v-5.68c19.67,0,39.21,0,58.74,0,5.8.02,11.6.04,17.4.07,3.77-.04,7.54-.08,11.31-.13,2.78-2.96,5.56-5.91,8.34-8.87,2.65.23,5.29.47,7.94.7.16.29.4.39.71.3,1.42,1.33,2.83,2.65,4.25,3.98,2,4.55,3.12,9.12-.42,13.43-1.33,1.62-3.03,2.93-4.57,4.38-6.93.57-13.63.65-15.96-7.64-3.08.28-5.55.5-8.01.72-4,0-8-.02-11.99-.03-.57-.09-1.14-.18-1.71-.27-13.9-.23-27.8-.47-41.7-.68-8.11-.12-16.22-.2-24.34-.3ZM241.28,152.97c-.81.02-1.62.05-2.43.07-1.43,2.19-3.85,4.28-4.07,6.58-.32,3.38,2.2,6.09,5.83,5.93,3.15-.14,6.12-2.28,5.36-5.73-.55-2.51-3.05-4.59-4.69-6.86Z"/>
  <path class="cls-26" d="M120.09,204.8c-1.79-.33-3.58-.67-5.38-1-.23-.93-.45-1.86-.68-2.79.08-22.78.66-45.58.01-68.35-.3-10.65,1.26-19.5,10.66-25.63.8-.1,2.25-.05,2.31-.31,1.27-5.75,5.68-3.55,9.14-3.7,1.69,1.35,3.38,2.71,5.06,4.06-6.36,5.95-12.71,11.9-19.07,17.85-.22.35-.44.71-.65,1.06-.02,7.01-.04,14.02-.07,21.03.02.32.05.65.07.97,0,1-.01,2-.02,3-.33,1.61-.98,3.23-.96,4.84.21,15.75.52,31.49.81,47.24-.42.58-.83,1.16-1.25,1.74Z"/>
  <path class="cls-7" d="M195.2,151.29c-1.34,0-2.69,0-4.03,0-16.65-.14-33.29-.28-49.94-.42v-5.93c16.15,0,32.05,0,47.95,0,2.92-.12,6.99.96,8.57-.55,7.15-6.89,13.98-14.2,20.12-22,2.66-3.38,5.13-5.9,9.32-6.59,9.88,1.84,12.69,8.74,6.9,16.94-.32.2-.63.4-.95.6-.3.22-.59.44-.89.65-5.22,2.16-9.65.92-13.3-3.5-5.44,5.86-10.8,11.28-15.72,17.09-2.27,2.68-4.71,3.86-8.03,3.68ZM233.48,125.81c-2.65-1.81-4.21-3.68-5.85-3.75-1.42-.06-2.93,1.91-4.41,2.98,1.39,1.59,2.54,4.03,4.23,4.47,1.28.34,3.23-1.88,6.02-3.7Z"/>
  <path class="cls-3" d="M148.19,176.7c-1.68,0-3.35,0-5.03,0-.58-.24-1.15-.48-1.73-.72-.08-1.63-.15-3.26-.23-4.89,19.66-.06,39.32-.12,58.98-.18,5.97,6.66,11.93,13.32,18.2,20.32,1.16-1.33,1.98-2.27,2.8-3.21.27-.34.53-.67.8-1.01.12-.32.24-.63.36-.95.67-.2,1.34-.39,2.01-.59.94-.18,1.89-.35,2.83-.53,4.85.72,8.48,3.4,9.78,7.99,1.32,4.7-1.58,8.14-5.14,10.92-6.79,2.29-9.61,1.07-12.58-4.82-.42-.84-.86-1.75-1.51-2.39-6.81-6.69-13.66-13.33-20.5-19.98-1.43-.25-2.86-.71-4.3-.72-13.3-.05-26.61-.04-39.91.02-1.61,0-3.22.46-4.82.71ZM233.84,195.17c-2.67-2.04-4.32-4.24-5.6-4.05-1.79.27-3.31,2.33-4.94,3.63,1.4,1.53,2.64,4.06,4.24,4.31,1.49.23,3.36-1.95,6.3-3.89Z"/>
  <path class="cls-26" d="M115.27,54.19c-1.67,0-3.53-.51-4.96.07-5.17,2.07-10.09,1.56-14.99-.68,9.45-6.71,10.55-9.38,7.68-18.5,1.19-.74,2.37-1.48,3.56-2.22,2.87.55,6.13,2.15,8.48,1.29,1.72-.64,3.27-4.63,3.01-6.91-.23-1.96-3.13-3.61-4.84-5.39-.33-.46-.67-.92-1-1.38-.34.45-.68.9-1.02,1.35-.66-.02-1.31-.04-1.97-.07-2-4.14-4-8.29-5.99-12.43,3.3-.83,6.61-1.66,9.91-2.49-.73,4.23,1.6,5.91,5.23,7.42,3.79,1.58,4.86-.5,6.48-2.96.55-.83,2.28-.87,3.47-1.27-1.24,4.38-2.47,8.76-3.71,13.14-.09.79-.18,1.58-.27,2.37.09.23.2.45.24.68.01.07-.17.18-.26.27.18,1.17.37,2.34.55,3.51.49,2.01.97,4.01,1.46,6.02,1.01,4.5-4.03,4.23-5.4,6.85-1.88,3.78-3.76,7.56-5.63,11.34Z"/>
  <path class="cls-26" d="M53.18,48.02c-.69-.01-1.38-.02-2.07-.04,8.67-13.28,20.03-23.6,34.07-30.98.33-.23.66-.45.98-.68.33-.12.66-.24,1-.37.33.5.67.99,1,1.49.34-.82.67-1.65,1.01-2.47,2.54-1.06,5.07-2.11,7.61-3.17.11,2.1,1.14,4.96.16,6.16-2.77,3.38-6.4,6.04-9.62,9.06-.84.78-1.44,1.83-2.15,2.75-1.87,1.98-3.82,3.88-5.58,5.96-3.8,4.5-7.51,9.09-11.25,13.65-.2-1.69-.39-3.38-.75-6.4-2.68,2.58-4.17,5.17-6.19,5.68-2.39.6-5.23-.59-7.88-.98-.09-.01-.22.22-.34.34Z"/>
  <path class="cls-25" d="M136.15,103.02c-3.46.15-7.87-2.05-9.14,3.7-.06.26-1.51.22-2.31.31-.11-1.17-.21-2.33-.32-3.5-1.07.14-2.39-.06-3.17.49-2.28,1.64-4.26,3.68-6.5,5.37-4.3,3.25-5.85,7.26-5.79,12.82.25,21.93-.05,43.87-.14,65.81-.23-1.78-.64-3.57-.65-5.35-.04-17.45-.25-34.9.14-52.35.12-5.21-1.55-8.34-6.08-10.32-.12-2.48-.21-4.96-.36-7.44-.32-5.4-1.31-11.01,4.72-14.31.48-.06.96-.12,1.44-.18,1.61.08,3.23.15,4.84.23.76-.24,1.52-.47,2.28-.71.76-1.55,1.51-3.1,2.27-4.66-.2-.65-.41-1.31-.61-1.96.14-.28.16-.56.04-.85,3.04.12,3.42-1.98,3.56-4.27.33.58.65,1.16.98,1.75.23.47.46.94.69,1.42,3.63,3.94,7.21,7.92,10.91,11.79.87.91,2.12,1.47,3.19,2.19Z"/>
  <path class="cls-26" d="M130.19,205.32c-.6-.28-1.2-.55-1.81-.83-.43-.48-.86-.97-1.28-1.45-.04-10.26-.02-20.53-.12-30.79-.08-7.76-.31-15.52-.47-23.28.24-3.32.47-6.64.71-9.96,2.57-.67,5.14-1.34,7.71-2.01-.4,18.18-.81,36.36-1.19,54.54-.07,3.14.38,6.36-.16,9.41-.29,1.61-2.2,2.93-3.38,4.37Z"/>
  <path class="cls-7" d="M184.33,190.01c-.42,9.49-4.42,13.76-13.01,13.93-4.59-1.74-7.86-4.71-8.71-9.93h-21.31v-5.83c6.34,0,12.46.1,18.57-.07,1.43-.04,3.29-.58,4.19-1.57,7.24-7.96,15.63-6.59,20.26,3.47ZM173.69,184.79c-2.51,3.35-5.28,5.45-5.04,7.13.3,2.14,2.74,5.08,4.8,5.61,3.28.85,5.37-2.28,5.06-5.22-.22-2.11-2.45-4-4.81-7.53Z"/>
  <path class="cls-13" d="M142.55,218.9c-1.63.05-3.27.08-4.9.17-.8.05-2.03-.08-2.34.37-2.8,4.07-5.44,8.25-8.13,12.4-.98.97-2.34,1.78-2.85,2.95-.53,1.22-.23,2.8-.29,4.22-1.77-.3-3.97-.05-5.21-1.02-2.96-2.31-5.87-3.37-9.47-1.98-.13-4.34-.26-8.68-.39-13.02,0-.66-.02-1.32-.03-1.98.2-.95.39-1.9.59-2.85,7.21-.02,14.43-.05,21.64-.07,3.79.27,7.58.54,11.36.81Z"/>
  <path class="cls-13" d="M143.26,133.01c4.24-10.67,13.17-3.25,19.74-7.15,1.8-4.36,5.37-8.3,12.19-7.13,4.94.84,8.64,4.67,9.22,9.66.57,4.88-2.07,9.38-6.53,11.15-4.67,1.86-10.32.64-12.9-3.49-1.59-2.53-3.32-3.16-6.02-3.08-4.95.16-9.9.04-15.7.04ZM173.93,122c-2.58,3.25-5,4.98-5.36,7.06-.59,3.41,2.14,5.99,5.34,5.58,1.9-.24,4.78-3.13,4.83-4.89.06-2.08-2.47-4.23-4.8-7.76Z"/>
  <path class="cls-3" d="M55.32,199.75c-1.73-2.24-3.46-4.49-5.19-6.73-.03-15.01-.07-30.02-.1-45.03,2.37,2.01,4.74,4.02,7.11,6.03.1.67.21,1.35.31,2.02-.07,14.7-.15,29.4-.22,44.1-.64-.13-1.27-.27-1.91-.4Z"/>
  <path class="cls-7" d="M134.93,137c-2.57.67-5.14,1.34-7.71,2.01-.12-2.01-.23-4.02-.35-6.03.06-2,.11-4,.17-5.99,5.47-5.28,10.93-10.55,16.4-15.83,3.52-3.79,7.3-2.38,11.83-.23-9.25,6.98-18.52,13.76-20.34,26.07Z"/>
  <path class="cls-25" d="M85.16,29.78c.71-.92,1.31-1.97,2.15-2.75,3.22-3.02,6.85-5.68,9.62-9.06.99-1.2-.05-4.06-.16-6.16,2.14-.83,4.28-1.67,6.43-2.5,2,4.14,4,8.29,5.99,12.43-4.74,2.81-5.32,5.27-2.65,11.1-1.19.74-2.37,1.48-3.56,2.22-1.9-1.71-3.8-3.41-5.7-5.12-4.01-2.74-8.07-1.28-12.13-.18Z"/>
  <path class="cls-13" d="M212.01,31.45c1.2-.75,2.4-1.5,3.68-2.29-.49-2-1-4.04-1.5-6.07,6.03,2.55,12.06,5.1,18.1,7.66-1.03,1.74-1.65,4.3-3.18,5.08-4.29,2.18-6.01,4.92-4.33,9.62.25.68-.48,1.72-.75,2.59-2.23-3.71-4.46-7.42-6.69-11.12-1.39-1.54-2.78-3.08-4.18-4.61-.38-.28-.77-.57-1.15-.85Z"/>
  <path class="cls-14" d="M212.01,31.45c.38.28.77.57,1.15.85-.67,1.61-1.34,3.22-2.01,4.83-1.64-.41-3.27-.83-4.91-1.24-6.03-1.96-12.05-3.91-18.08-5.87-1.3-.29-2.6-.58-3.9-.87-.37-2-.74-4-1.11-6,2.36.49,4.72.97,7.07,1.46,5.67,1.8,11.34,3.6,17.01,5.39.32.28.64.56.95.84,1.28.2,2.55.41,3.83.61Z"/>
  <path class="cls-25" d="M170.14,5.02c-2.98,1.3-5.97,2.6-8.95,3.9-4.67.37-9.33.75-14,1.12-.71-2.44-1.42-4.88-2.13-7.32,8.79-4.02,17.21-3.88,25.07,2.29Z"/>
  <path class="cls-25" d="M158.19,60c.21,1.13.42,2.27.63,3.4.74,4.06-2.23,5.94-5.06,6.91-1.35.46-4.05-1.21-5.27-2.65-1.84-2.18-2.91-5.01-4.31-7.56,4.67-.03,9.34-.07,14.02-.1Z"/>
  <path class="cls-25" d="M128.29,10.02c-1.19.4-2.92.44-3.47,1.27-1.62,2.46-2.69,4.54-6.48,2.96-3.63-1.51-5.96-3.18-5.23-7.42,6.06-.91,12.12-1.82,18.18-2.73.22.41.44.82.66,1.23-1.22,1.56-2.44,3.12-3.66,4.68Z"/>
  <path class="cls-18" d="M120.38,85.88c-.14,2.29-.52,4.4-3.56,4.27-.22,0-.44-.03-.65-.1-1.96-3.13-4.44-2.12-6.96-.89-3.66-2.75-.25-4.35,1.33-5.36,1.47-.94,3.74-.65,5.65-.9,1.02.63,2.05,1.26,3.07,1.88.38.4.76.79,1.14,1.19l-.02-.09Z"/>
  <path class="cls-19" d="M116.19,82.89c-1.92.25-4.18-.04-5.65.9-1.58,1.02-5,2.61-1.33,5.36.17,1.42.33,2.83.5,4.32-2.1-.2-3.89-.36-5.67-.53l-.35.02s-.34-.05-.34-.05c-.1-.97-.19-1.94-.29-2.91.06-.66.12-1.31.19-1.97.45-.96.9-1.92,1.34-2.88,1.84-1.44,3.67-2.88,5.51-4.31,2.03.68,4.06,1.36,6.1,2.04Z"/>
  <path class="cls-21" d="M182.15,169.73c4.46.06,8.92.03,13.38.21,1.56.06,3.11.63,4.66.97-19.66.06-39.32.12-58.98.18,1.86-.4,3.71-1.11,5.58-1.14,11.79-.16,23.57-.17,35.36-.23Z"/>
  <path class="cls-10" d="M141.23,150.88c16.65.14,33.29.28,49.94.42-1.44.25-2.89.71-4.33.71-13.66.05-27.33.06-40.99-.03-1.54-.01-3.08-.71-4.61-1.1Z"/>
  <path class="cls-25" d="M190.17,177.07c-1.67,0-3.33,0-5,0-12.33-.12-24.66-.25-36.99-.37,1.61-.25,3.21-.71,4.82-.71,13.3-.07,26.61-.07,39.91-.02,1.43,0,2.86.47,4.3.72-2.35.13-4.7.26-7.04.39Z"/>
  <path class="cls-25" d="M190.21,24.6c-2.36-.49-4.72-.97-7.07-1.46-.32-.38-.65-.76-.97-1.14,1.59-1.28,3.19-2.55,4.78-3.83,1.09,2.14,2.17,4.28,3.26,6.42Z"/>
  <path class="cls-1" d="M153.86,213.06c-2.23.65-4.45,1.31-8.15,2.39,1.05-2.28,1.37-4.11,2.06-4.26,1.9-.42,3.95-.15,5.95-.15.05.67.1,1.34.15,2.01Z"/>
  <path class="cls-1" d="M170.97,223.99h-.42s-.41.01-.42.01c-.93-1.5-1.86-3-2.79-4.5,1.24-.53,2.49-1.07,3.73-1.6,0,0,.28.29.28.29-.13,1.93-.26,3.87-.39,5.8Z"/>
  <path class="cls-13" d="M157.96,227.03c-1.68.31-3.37.62-5.75,1.05.48-2.34.79-3.89,1.11-5.43,1.55,1.46,3.1,2.92,4.64,4.38Z"/>
  <path class="cls-26" d="M184.25,29.15c1.3.29,2.6.58,3.9.87-1.26.33-2.53.67-3.79,1-.04-.62-.07-1.25-.11-1.87Z"/>
  <path class="cls-25" d="M89.17,14.99c-.34.82-.67,1.65-1.01,2.47-.33-.5-.67-.99-1-1.49.67-.33,1.34-.66,2.01-.98Z"/>
  <path class="cls-26" d="M114.89,63.97c-.02-1.63-.04-3.26-.06-4.89.02,1.63.04,3.26.06,4.89Z"/>
  <path class="cls-25" d="M131.87,59.98c.02-1.67.04-3.33.05-5-.02,1.67-.03,3.33-.05,5Z"/>
  <path class="cls-25" d="M179.22,22.11c.35-.55.7-1.1,1.05-1.66.31.45.62.91.93,1.36-.66.1-1.31.2-1.97.29Z"/>
  <path class="cls-7" d="M223.21,75.74c1.31,0,2.62,0,3.92,0-1.31,0-2.62,0-3.92,0Z"/>
  <path class="cls-26" d="M116.17,79.8c.03-1.32.05-2.64.08-3.97-.03,1.32-.05,2.64-.08,3.97Z"/>
  <path class="cls-25" d="M124.85,29.98c-.18-1.17-.37-2.34-.55-3.51.18,1.17.37,2.34.55,3.51Z"/>
  <path class="cls-26" d="M184.21,34.12c-.24.95-.49,1.89-.73,2.84.24-.95.49-1.89.73-2.84Z"/>
  <path class="cls-25" d="M190.26,14.98c-1.02-.28-2.05-.56-3.07-.84,1.02.28,2.05.56,3.07.84Z"/>
  <path class="cls-26" d="M184.5,32.05c-.05.66-.1,1.32-.14,1.98.05-.66.1-1.32.14-1.98Z"/>
  <path class="cls-26" d="M115.82,72.96c-.18-.75-.35-1.5-.53-2.25.18.75.35,1.5.53,2.25Z"/>
  <path class="cls-25" d="M124.31,25.52c.09-.79.18-1.58.27-2.37-.09.79-.18,1.58-.27,2.37Z"/>
  <path class="cls-25" d="M137.15,61.29c-.75.2-1.5.41-2.25.61.75-.2,1.5-.41,2.25-.61Z"/>
  <path class="cls-25" d="M142.14,60.36c-.71.19-1.42.39-2.12.58.71-.19,1.42-.39,2.12-.58Z"/>
  <path class="cls-25" d="M132.16,17.98c-.23.66-.46,1.33-.68,1.99.23-.66.46-1.33.68-1.99Z"/>
  <path class="cls-25" d="M141.44,175.99c.58.24,1.15.48,1.73.72-.58-.24-1.15-.48-1.73-.72Z"/>
  <path class="cls-25" d="M132.14,54.77c.76-.22,1.51-.45,2.27-.67-.76.22-1.51.45-2.27.67Z"/>
  <path class="cls-26" d="M122.5,71.71c.18.6.36,1.2.55,1.8-.18-.6-.37-1.2-.55-1.8Z"/>
  <path class="cls-26" d="M184.14,72.02c-.31-.21-.62-.42-.93-.64.31.21.62.42.93.64Z"/>
  <path class="cls-18" d="M122.05,89.04c-.23-.47-.46-.94-.69-1.42.23.47.46.94.69,1.42Z"/>
  <path class="cls-25" d="M131.59,32.05c.17.39.34.78.51,1.17-.17-.39-.34-.78-.51-1.17Z"/>
  <path class="cls-25" d="M161.27,60.98c-.35-.17-.69-.34-1.04-.51.35.17.69.34,1.04.51Z"/>
  <path class="cls-25" d="M186.29,13.97c-.34-.15-.69-.3-1.03-.45.34.15.69.3,1.03.45Z"/>
  <path class="cls-25" d="M120.4,85.96c-.38-.4-.76-.79-1.14-1.19.38.4.76.79,1.14,1.19Z"/>
  <path class="cls-25" d="M86.16,16.33c-.33.23-.66.45-.98.68.33-.23.66-.45.98-.68Z"/>
  <path class="cls-26" d="M123.57,76.04c.19.36.38.72.57,1.08-.19-.36-.38-.72-.57-1.08Z"/>
  <path class="cls-11" d="M15.05,275.9c-3.32.05-6.64-.03-9.95.2-3.13.21-4.08-1.17-3.95-4.1.19-4.31.14-8.63.18-12.94,4.32-2.71,7.74-1.49,10.75,2.27.66.82,1.93,1.16,2.91,1.72.02,4.28.03,8.57.05,12.85Z"/>
  <path class="cls-17" d="M15,263.05c-.99-.56-2.25-.89-2.91-1.72-3.01-3.76-6.43-4.98-10.75-2.27-.08-.36-.16-.73-.25-1.09.1-4.3.19-8.61.29-12.91,5.25-5.23,5.43-5.14,9.72,1.62.88,1.39,2.57,2.27,3.88,3.39,0,4.33,0,8.66.01,12.99Z"/>
  <path class="cls-27" d="M15.03,232.05c0,3.34-.02,6.68-.02,10.01-1.3-1.96-2.94-3.77-3.85-5.9-2.51-5.88-4.25-6.72-9.79-4.1-.05-1.83-.17-3.66-.14-5.49.14-7.67-1.61-7.78,7.91-7.43.61,4.92.89,9.99,5.9,12.9Z"/>
  <path class="cls-4" d="M1.37,232.07c5.54-2.63,7.29-1.78,9.79,4.1.91,2.13,2.54,3.94,3.85,5.9,0,2.67,0,5.33-.01,8-1.32-1.12-3-2-3.89-3.39-4.3-6.75-4.47-6.84-9.72-1.62,0-4.33-.01-8.66-.02-12.99Z"/>
  <path class="cls-16" d="M15.03,232.05c-5-2.91-5.28-7.98-5.9-12.9,5.01-1.08,6.59,1.18,6.01,5.91-.28,2.3-.09,4.65-.12,6.98Z"/>
  <path class="cls-13" d="M237.18,217.96c3.42.21,7.26-.49,8.63,4.07-6.44,1.57-11.59-3.05-17.57-3.68,2.98-.13,5.96-.26,8.94-.39Z"/>
  <path class="cls-13" d="M226.24,219.8c-.61-.41-1.21-.82-2.44-1.65,1.3.08,1.85.12,2.39.15l.05,1.5Z"/>
  <path class="cls-7" d="M102.2,120.02c4.53,1.97,6.2,5.11,6.08,10.32-.39,17.44-.18,34.9-.14,52.35,0,1.78.42,3.57.65,5.35.01,3.34.02,6.68.03,10.02-.24,1.88-.49,3.76-.73,5.64-.07.26-.12.52-.16.78-.37.03-.62.22-.75.57-.66.06-1.32.13-1.98.19-.66-.11-1.32-.22-1.98-.33-.41-.63-.83-1.26-1.24-1.89.08-27.66.15-55.33.23-82.99Z"/>
  <path class="cls-9" d="M108.98,223c.13,4.34.26,8.68.39,13.02-.13,7-.25,14.01-.38,21.01-.29,0-.58,0-.87-.02.02-9.58.01-19.16.11-28.74.02-1.76.49-3.51.75-5.27Z"/>
  <path class="cls-5" d="M127.1,203.04c.43.48.86.97,1.28,1.45-3.39,4.72-4.69,4.77-8.3.31.42-.58.83-1.16,1.25-1.74,1.92,0,3.84-.01,5.77-.02Z"/>
  <path class="cls-10" d="M107.93,204.47c.04-.26.09-.52.16-.78.38-.56.75-1.12,1.13-1.67,1.61-.34,3.21-.67,4.82-1.01.23.93.45,1.86.68,2.79-2.25.31-4.18,3.93-6.78.67Z"/>
  <path class="cls-9" d="M109.54,218.17c-.2.95-.39,1.9-.59,2.85.2-.95.39-1.9.59-2.85Z"/>
  <path class="cls-10" d="M105.2,205.23c.66-.06,1.32-.13,1.98-.19-.66.06-1.32.13-1.98.19Z"/>
  <path class="cls-3" d="M95.91,117.02c.07,25.86.14,51.71.22,77.57,0,1.82.14,3.63.22,5.45-.19,1.01-.38,2.01-.57,3.02-.2.32-.4.64-.6.96-1.34.34-2.68.67-4.02,1.01-.66-2.24-1.88-4.48-1.9-6.73-.19-27.1-.21-54.21-.27-81.31.13-.99.25-1.97.38-2.96,2.18,1,4.36,2,6.54,3Z"/>
  <path class="cls-27" d="M43.52,232.04c-4.74-.34-9.51-1.23-14.2-.89-5.67.4-5.07-2.91-5.19-6.55-.12-3.69.3-5.8,4.98-5.68,13.14.33,26.3.12,39.44.15,3.19,0,7.23,4.06,6.22,7.3-.62,1.98-3.69,3.79-6.02,4.48-3.35.99-7.03.88-10.57,1.23-.06.29-.12.58-.19.86-.26,2.02-.53,4.03-.79,6.05-.96-1.72-2.28-3.34-2.8-5.18-1.91-6.78-3.31-7.29-8.72-2.88-.61.5-1.43.74-2.15,1.1Z"/>
  <path class="cls-3" d="M63.01,203.04c.07-8.31.14-16.62.21-24.92,2.46,1.64,4.92,3.28,7.39,4.93-.02.32-.05.64-.07.96.02,3.99.05,7.99.07,11.98-.84,3-1.68,6-2.51,9-1.69-.64-3.39-1.29-5.08-1.93Z"/>
  <path class="cls-8" d="M57.2,239c.26-2.02.53-4.03.79-6.05.03,3.04.06,6.08.09,9.12-.28-.05-.56-.1-.84-.14-.02-.98-.03-1.95-.05-2.93Z"/>
  <path class="cls-26" d="M95.18,204.01c.2-.32.4-.64.6-.96-.2.32-.4.64-.6.96Z"/>
  <path class="cls-1" d="M124.04,239.02c.06-1.42-.23-3,.29-4.22.51-1.18,1.87-1.98,2.85-2.95,3.82.07,7.65.04,11.47.24,4.66.24,7.66,3.05,7.54,6.93-.16,5.07-3.77,5.68-7.67,5.73-4.64.06-9.27.01-14.11.01-.14-2.16-.26-3.95-.38-5.73Z"/>
  <path class="cls-13" d="M161.19,235c.29,1.89.58,3.79.86,5.68-.27.17-.53.35-.77.55-.03-2.07-.06-4.15-.09-6.22Z"/>
  <path class="cls-10" d="M161.28,241.22c.25-.2.5-.38.77-.55-.26,1.11-.52,2.22-.78,3.33,0-.93,0-1.85.01-2.78Z"/>
  <path class="cls-10" d="M161.07,244.73c-.22.42-.44.84-.67,1.26.22-.42.44-.84.67-1.26Z"/>
  <path class="cls-26" d="M192.18,218.14c7.85.02,15.71,0,23.56.1,1.48.02,2.96.49,4.44.76-11.28,0-22.56,0-33.78,0-1.63,8.92-9.15,8.23-15.08,10.02-.12-1.68-.24-3.35-.35-5.03.13-1.93.26-3.87.39-5.8,6.94-.02,13.88-.03,20.82-.05Z"/>
  <path class="cls-1" d="M215.18,232.09c-.67,2.63-1.33,5.26-2,7.9-4.66.11-9.32.22-13.97.33-1.35,0-2.7.01-4.05.02-2.99-.08-5.99-.16-8.98-.25,0-2.75,0-5.5,0-8.25,7.66-.06,15.31-.13,22.97-.19,1.34,0,2.67,0,4.01,0,.67.15,1.35.3,2.02.45Z"/>
  <path class="cls-26" d="M215.18,232.09c-.67-.15-1.35-.3-2.02-.45.36-2.6.4-5.31,1.22-7.75.43-1.28,2.23-2.1,3.44-3.1.76-.63,1.58-1.19,2.37-1.78,0,4.18,0,8.37,0,12.66-1.79.15-3.4.28-5.01.41Z"/>
  <path class="cls-9" d="M186.33,261.99c9.92,0,19.84-.06,29.76.04,1.69.02,3.37.71,5.05,1.09-10.14-.06-20.27-.09-30.41-.23-1.47-.02-2.94-.59-4.41-.9Z"/>
  <path class="cls-26" d="M209.14,231.64c-7.66.06-15.31.13-22.97.19,7.66-.06,15.31-.13,22.97-.19Z"/>
  <path class="cls-26" d="M199.2,240.31c4.66-.11,9.32-.22,13.97-.33,3.68-.14,4.54,1.77,3.62,4.98-.52-3.08-2.18-4.15-5.42-4.01-4.04.18-8.11-.39-12.17-.64Z"/>
  <path class="cls-26" d="M186.17,240.08c2.99.08,5.99.16,8.98.25-2.99-.08-5.99-.16-8.98-.25Z"/>
  <path class="cls-26" d="M216.86,250.97c-.23.65-.46,1.29-.7,1.94.23-.65.46-1.29.7-1.94Z"/>
  <path class="cls-22" d="M186.65,85.21c-1.97,1.54-3.06,2.39-4.16,3.25-1.03-1.45-2.47-2.8-2.87-4.42-.17-.67,2.17-2.86,2.91-2.66,1.32.36,2.29,2,4.12,3.82Z"/>
  <path class="cls-20" d="M167.56,84.14c1.21-.82,2.42-1.65,3.64-2.47.84,1.56,1.88,3.07,2.36,4.73.1.34-2.55,2.03-2.79,1.82-1.27-1.13-2.17-2.68-3.21-4.08Z"/>
  <path class="cls-21" d="M147.44,80.75c1.22,2,2.61,3.27,2.4,4.18-.28,1.22-1.78,2.17-2.76,3.24-.97-1.05-2.67-2.08-2.71-3.16-.04-1.11,1.55-2.28,3.07-4.25Z"/>
  <path class="cls-1" d="M155.84,86.03c1.04-1.37,2.07-2.74,3.11-4.12.83,1.37,1.65,2.74,2.48,4.11-1.86,2.88-3.72,3.08-5.59,0Z"/>
  <path class="cls-20" d="M88.99,116.98c-3.76.65-4.79-.99-4.74-4.67.1-8.39-.27-16.78-.45-25.16.71-1.66,1.07-3.62,2.19-4.93,2.53-2.92,5.43-5.52,8.18-8.25.57-.86,1.37-1.65,1.67-2.59.73-2.36,1.23-4.78,1.82-7.18,6.24-2.49,8.11-2.04,11.83,2.86-.93,2.6-1.86,5.19-2.79,7.79l-2.31,1.27c-2.07.18-4.13.36-6.2.53-3.12,3.79-6.24,7.59-9.36,11.38.05,4.99.1,9.98.15,14.98.13,3.67.25,7.34.38,11-.13.99-.25,1.97-.38,2.96Z"/>
  <path class="cls-20" d="M68.13,163.99c2.68,0,5.36.02,8.04.03,0,0,0,.06,0,.06.35.3.7.61,1.06.91,1.02,1.28,2.04,2.56,3.06,3.85-.04,2.7-.08,5.4-.12,8.1-.94,1.05-1.89,2.09-2.83,3.14-1.38-1.04-2.77-2.07-4.15-3.11,1.05-1.32,2.11-2.64,3.16-3.96.1-.1.31-.21.29-.28-.04-.24-.17-.47-.26-.7-.11-.56-.22-1.12-.33-1.68-.33-.42-.66-.85-.99-1.27-1.98.1-5.32-.39-5.68.43-.83,1.88-.22,4.41-.2,6.67-1.94.25-3.88.5-5.82.75-.4-2.65-.81-5.31-1.21-7.96.35-.64.7-1.28,1.05-1.92,0,0,.02-.02.02-.02.33-.27.66-.54.99-.81,1.31-.74,2.61-1.49,3.92-2.23Z"/>
  <path class="cls-10" d="M97.3,29.96c1.9,1.71,3.8,3.41,5.7,5.12,2.87,9.12,1.77,11.79-7.68,18.5-.72.22-1.43.43-2.15.65-.26-.17-.54-.22-.85-.16-1.44-1.13-2.87-2.25-4.31-3.38.02-.24.08-.46.17-.68.99-.05,1.97-.11,2.96-.16.82.07,1.8.47,2.43.15,8.23-4.09,9.53-12.6,1.63-17.11.7-.98,1.4-1.96,2.1-2.94Z"/>
  <path class="cls-22" d="M63.35,176.93c1.94-.25,3.88-.5,5.82-.75,1.33.26,2.67.52,4,.78,1.38,1.04,2.77,2.07,4.15,3.11-.45,4.31-.89,8.61-1.34,12.92-1.79.99-3.58,1.99-5.37,2.98-.02-3.99-.05-7.99-.07-11.98.11-.09.31-.19.3-.26-.04-.24-.15-.47-.23-.7-2.46-1.64-4.92-3.28-7.39-4.93.04-.39.09-.79.13-1.18Z"/>
  <path class="cls-10" d="M106.57,98.27c-1.2-1.11-2.4-2.23-3.6-3.34.36-.66.71-1.32,1.07-1.98,1.79.17,3.57.33,5.67.53-.17-1.49-.34-2.91-.5-4.32,2.52-1.23,5-2.24,6.96.89.2.32.4.63.61.95.2.65.41,1.31.61,1.96-.76,1.55-1.51,3.1-2.27,4.66-.76.24-1.52.47-2.28.71-1.61-.08-3.22-.15-4.84-.23-.48.06-.96.12-1.44.18Z"/>
  <path class="cls-26" d="M97.66,64.2c-.59,2.4-1.09,4.82-1.82,7.18-.29.94-1.1,1.73-1.67,2.59-.7-.84-1.39-1.69-2.11-2.51-1.16-1.33-2.34-2.64-3.52-3.96,1.63-1.23,3.11-2.78,4.93-3.57,1.14-.5,2.77.14,4.19.27Z"/>
  <path class="cls-21" d="M88.01,50.69c1.44,1.13,2.87,2.25,4.31,3.38-.09.31-.13.62-.12.95-1.27,1.03-2.53,2.06-3.8,3.1-1.12-1.12-2.24-2.24-3.36-3.36.99-1.35,1.98-2.71,2.97-4.06Z"/>
  <path class="cls-26" d="M106.7,74.85c.93-2.6,1.86-5.19,2.79-7.79.11.12.25.22.33.35,1.02,1.82,2.03,3.65,3.04,5.48-2.05.65-4.11,1.3-6.16,1.95Z"/>
  <path class="cls-12" d="M88.99,103.02c-.05-4.99-.1-9.98-.15-14.98.05,4.99.1,9.98.15,14.98Z"/>
  <path class="cls-22" d="M80.16,176.93c.04-2.7.08-5.4.12-8.1-.04,2.7-.08,5.4-.12,8.1Z"/>
  <path class="cls-26" d="M103.06,90.01c.1.97.19,1.94.29,2.91-.65-.51-1.3-1.02-1.94-1.52.55-.46,1.1-.92,1.66-1.39Z"/>
  <path class="cls-26" d="M104.59,85.16c-.45.96-.9,1.92-1.34,2.88-1.71-1.97-.87-2.74,1.34-2.88Z"/>
  <path class="cls-12" d="M98.2,76.66c2.07-.18,4.13-.36,6.2-.53-2.07.18-4.13.36-6.2.53Z"/>
  <path class="cls-26" d="M92.2,55.02c-.02-.32.02-.64.12-.95.3-.06.59,0,.85.16-.32.26-.64.52-.97.79Z"/>
  <path class="cls-22" d="M77.22,164.99c-.35-.3-.7-.61-1.06-.91.35.3.7.61,1.06.91Z"/>
  <path class="cls-24" d="M217.33,36.92c2.23,3.71,4.46,7.42,6.69,11.12.38,2.32.76,4.64,1.14,6.96-2.09-1.16-4.18-2.32-6.27-3.48-.84-1.79-1.67-3.57-2.51-5.36-.08-1.53-.16-3.06-.25-4.59.4-1.55.8-3.1,1.2-4.65Z"/>
  <path class="cls-10" d="M232.16,44.72c5.42,1.82,6.47,6.29,7.14,11.96-2.99-1.98-5.57-3.35-7.72-5.21-2.22-1.92-3.87-4.33-.38-6.78,0,0,.47.15.47.15l.48-.12Z"/>
  <path class="cls-25" d="M218.88,51.52c2.09,1.16,4.18,2.32,6.27,3.48.34.99.67,1.99,1.01,2.98-3.46-.62-8.62,2.09-9-4.58.57-.63,1.14-1.25,1.72-1.88Z"/>
  <path class="cls-13" d="M232.16,44.72l-.48.12s-.47-.15-.47-.15c.32,0,.64.02.95.03Z"/>
  <path class="cls-1" d="M147.19,10.05c4.67-.37,9.33-.75,14-1.12,12.4,6.88,15.01,20.06,5.75,29.05-7.02,6.82-17.06,6.58-23.94-.58-6.58-6.84-6.23-17.76.8-24.48,1.07-1.02,2.25-1.92,3.38-2.87ZM145,32.36c.74.86,1.48,1.72,2.22,2.58,4.19,3.83,8.88,4.04,13.68,1.54,4.57-2.38,6.14-6.58,6.25-11.53.12-5.01-3.3-7.51-6.82-9.99-5.46-2.48-10.19-1.52-14.19,2.97-.28.38-.56.75-.83,1.13-.21.23-.33.5-.36.81-2.57,4.17-2.47,8.33.04,12.48Z"/>
  <path class="cls-25" d="M208.17,30.84c-.32-.28-.64-.56-.95-.84.32.28.64.56.95.84Z"/>
  <path class="cls-10" d="M44.37,98.01c-.25-.42-.41-.97-.77-1.25-3.65-2.77-5.42-6.19-2.23-10.16,3.07-3.82,6.89-3.22,10.55-.48.49.98.98,1.95,1.48,2.93-1.46,3.31-2.92,6.63-4.37,9.94-1.55-.33-3.1-.66-4.65-.99Z"/>
  <path class="cls-7" d="M61.32,57.06c-1.02.66-2.05,1.32-3.07,1.97-1.02-.92-2.53-1.66-2.95-2.8-.98-2.63-1.44-5.46-2.11-8.21.11-.12.24-.35.34-.34,2.65.39,5.49,1.58,7.88.98,2.02-.51,3.51-3.1,6.19-5.68.35,3.02.55,4.71.75,6.4-2.34,2.56-4.68,5.11-7.02,7.67Z"/>
  <path class="cls-22" d="M38.53,133.92c-1.41-5.81,1.03-9.87,5.81-12.88,1.55,0,3.1,0,4.65,0,1.46,1.66,2.91,3.31,4.37,4.97-.07.28-.08.56-.04.84-.88.89-1.76,1.78-2.63,2.67-2.67-2.46-5.29-4.02-7.56.43-1.38,1.75-2.75,3.49-4.13,5.24,0,0,0-.03,0-.03-.15-.41-.31-.83-.47-1.24Z"/>
  <path class="cls-7" d="M57.31,63.01c-.01,5-.02,10-.04,15-1.62.64-3.24,1.29-5.12,2.03-.34-3.29-.88-6.25-.91-9.21-.05-4.07.93-7.64,6.06-7.82Z"/>
  <path class="cls-24" d="M57.5,82.78c.19,8.61.43,17.21.55,25.82.1,7.14.05,14.28.06,21.42-.26,1.39-.51,2.78-.77,4.17-.14-2.73-.28-5.46-.42-8.19,0-5.33.02-10.65.02-15.98l.03-10.01c.02-3.33.05-6.66.07-9.99-.1-1.29-.19-2.57-.29-3.86.25-1.13.49-2.25.74-3.38Z"/>
  <path class="cls-2" d="M38.99,135.18c1.38-1.75,2.75-3.49,4.13-5.24.35.68.7,1.36,1.04,2.04.1,2.23.21,4.46.31,6.68-1.29.14-2.59.27-3.88.41-.53-1.29-1.07-2.59-1.6-3.88Z"/>
  <path class="cls-9" d="M49.04,103.99c-1.56-.66-3.11-1.31-4.67-1.97,0-1.34,0-2.68,0-4.02,1.55.33,3.1.66,4.65.99,0,1.67,0,3.33.01,5Z"/>
  <path class="cls-6" d="M40.59,139.07c1.29-.14,2.59-.27,3.88-.4.9.29,1.8.58,2.71.87-.95,1.49-1.89,2.98-2.84,4.48-1.25-1.65-2.5-3.3-3.75-4.95Z"/>
  <path class="cls-7" d="M56.76,86.16c.1,1.29.19,2.57.29,3.86-1.22-.32-2.43-.64-3.65-.97-.49-.98-.98-1.95-1.48-2.93,1.61.01,3.23.03,4.84.04Z"/>
  <path class="cls-24" d="M57.97,59.93c-.13.45-.26.91-.38,1.36.13-.45.26-.91.38-1.36Z"/>
  <path class="cls-2" d="M38.53,133.92c.16.41.31.83.47,1.24-.16-.41-.31-.83-.47-1.24Z"/>
  <path class="cls-26" d="M216.13,41.57c.08,1.53.16,3.06.25,4.59-.67.73-1.34,1.47-2.01,2.2-1.6-3.72-4.39-.87-6.6-1.2-1.7.02-3.39.05-5.09.07.26,1.88.51,3.76.77,5.64-3.24,1.19-6.49,2.75-9.7-.08,2.03-2.45,1.6-4.7-.57-6.8.97-4.69,3.11-7.67,8.66-7.17,1.37.12,2.92-1.89,4.39-2.93,1.64.41,3.27.83,4.91,1.24,1.66,1.48,3.33,2.96,4.99,4.44Z"/>
  <path class="cls-19" d="M203.45,52.87c-.26-1.88-.51-3.76-.77-5.64,1.7-.02,3.39-.05,5.09-.07.82,3.62.13,6.09-4.32,5.71Z"/>
  <path class="cls-10" d="M193.18,45.99c2.16,2.1,2.6,4.35.57,6.8-.53.15-1.05.31-1.58.46-.33-.02-.65-.03-.98-.05-.82-.76-1.64-1.51-2.47-2.27.07-.96.13-1.93.2-2.89,1.42-.69,2.84-1.37,4.26-2.06Z"/>
  <path class="cls-2" d="M214.37,48.37c.67-.73,1.34-1.47,2.01-2.2.84,1.79,1.67,3.57,2.51,5.36-.57.62-1.14,1.25-1.72,1.88-3.6-.19-2.74-2.87-2.8-5.04Z"/>
  <path class="cls-26" d="M188.92,48.04c-.07.96-.13,1.93-.2,2.89.07-.96.13-1.93.2-2.89Z"/>
  <path class="cls-26" d="M191.19,53.2c.33.02.65.03.98.05-.33-.02-.65-.03-.98-.05Z"/>
  <path class="cls-10" d="M241.28,152.97c1.63,2.27,4.14,4.35,4.69,6.86.76,3.45-2.21,5.59-5.36,5.73-3.63.16-6.15-2.56-5.83-5.93.22-2.3,2.64-4.4,4.07-6.58.81-.02,1.62-.05,2.43-.07Z"/>
  <path class="cls-20" d="M217.57,157.12c3.77-.04,7.54-.08,11.31-.13-3.77.04-7.54.08-11.31.13Z"/>
  <path class="cls-20" d="M245.89,149.13c3.01-.37,4.47.91,4.25,3.98-1.42-1.33-2.83-2.65-4.25-3.98Z"/>
  <path class="cls-6" d="M121.43,147.02c.11.22.25.44.32.67.02.07-.16.2-.25.3-.02-.32-.05-.65-.07-.97Z"/>
  <path class="cls-6" d="M122.15,124.93c-.22.35-.44.71-.65,1.06.22-.35.44-.71.65-1.06Z"/>
  <path class="cls-10" d="M233.48,125.81c-2.79,1.82-4.74,4.04-6.02,3.7-1.69-.45-2.85-2.89-4.23-4.47,1.47-1.07,2.99-3.04,4.41-2.98,1.64.07,3.2,1.94,5.85,3.75Z"/>
  <path class="cls-20" d="M233.14,133.36c-.3.22-.59.44-.89.66.3-.22.59-.44.89-.66Z"/>
  <path class="cls-20" d="M233.84,195.17c-2.94,1.93-4.81,4.12-6.3,3.89-1.6-.25-2.84-2.78-4.24-4.31,1.63-1.29,3.15-3.36,4.94-3.63,1.29-.19,2.93,2.01,5.6,4.05Z"/>
  <path class="cls-21" d="M224.35,185.49l1.35-2.21c.49.56.98,1.12,1.48,1.68-.94.18-1.89.35-2.83.53Z"/>
  <path class="cls-20" d="M221.19,188.03c.27-.34.53-.67.8-1.01-.27.34-.53.67-.8,1.01Z"/>
  <path class="cls-21" d="M106.55,32.86c-2.68-5.83-2.09-8.3,2.65-11.1.66.02,1.31.04,1.97.07.67,0,1.35.02,2.02.02,1.72,1.79,4.62,3.43,4.84,5.39.26,2.28-1.28,6.27-3.01,6.91-2.35.87-5.61-.74-8.48-1.29Z"/>
  <path class="cls-25" d="M113.19,21.84c-.67,0-1.35-.02-2.02-.02.34-.45.68-.9,1.02-1.35.33.46.67.92,1,1.38Z"/>
  <path class="cls-23" d="M61.32,57.06c2.34-2.56,4.68-5.11,7.02-7.67,3.74-4.55,7.44-9.15,11.25-13.65,1.75-2.08,3.71-3.98,5.58-5.96,4.06-1.1,8.13-2.57,12.13.18-.7.98-1.4,1.96-2.1,2.94-7.99-1.53-12.16,1.73-12.98,10.14-1.44,1.43-2.87,2.86-4.31,4.28-4.81,4.61-9.61,9.22-14.42,13.84-.72-1.37-1.44-2.73-2.17-4.1Z"/>
  <path class="cls-13" d="M223.48,147.98c-1.88.99-3.78,2.73-5.64,2.7-1.23-.02-3.39-2.62-3.37-4.04.02-1.86,1.35-4.6,2.89-5.34,3.17-1.53,5.19.67,6.14,3.76,0,.97-.01,1.95-.02,2.92Z"/>
  <path class="cls-20" d="M223.48,147.98c0-.97.01-1.95.02-2.92,0,.97-.01,1.95-.02,2.92Z"/>
  <path class="cls-19" d="M115.12,97.61c.76-1.55,1.51-3.1,2.27-4.66-.76,1.55-1.51,3.1-2.27,4.66Z"/>
  <path class="cls-19" d="M108.01,98.09c1.61.08,3.22.15,4.84.23-1.61-.07-3.22-.15-4.84-.23Z"/>
  <path class="cls-19" d="M116.77,91c-.2-.32-.4-.63-.61-.95.21.07.43.11.65.1.11.29.1.57-.04.85Z"/>
  <path class="cls-10" d="M173.69,184.79c2.36,3.53,4.59,5.42,4.81,7.53.31,2.94-1.78,6.07-5.06,5.22-2.05-.53-4.49-3.47-4.8-5.61-.24-1.68,2.53-3.78,5.04-7.13Z"/>
  <path class="cls-10" d="M173.93,122c2.34,3.53,4.86,5.68,4.8,7.76-.05,1.76-2.93,4.65-4.83,4.89-3.2.41-5.92-2.17-5.34-5.58.36-2.08,2.79-3.81,5.36-7.06Z"/>
  <path class="cls-26" d="M221.13,169.16c.73,1.96,2.6,4.58,1.94,5.74-1.06,1.84-3.81,2.7-5.84,3.98-1.09-1.29-2.17-2.57-3.26-3.86.03-1.01.06-2.01.09-3.02,1.59-2.86,4.08-3.49,7.08-2.83Z"/>
  <path class="cls-25" d="M50.03,147.99c1.38-1.69,2.76-3.39,4.15-5.08,2.36,1.02,4.72,2.03,7.09,3.05-1.12,2.3-2.23,4.6-3.35,6.9l-.77,1.17c-2.37-2.01-4.74-4.02-7.11-6.03Z"/>
  <path class="cls-15" d="M57.14,154.02c.26-.39.51-.78.77-1.17,1.79.78,3.59,1.56,5.38,2.34.03.32-.07.6-.3.84-1.85,0-3.7,0-5.55.01-.1-.67-.21-1.35-.31-2.02Z"/>
  <path class="cls-24" d="M47.18,139.54c-.9-.29-1.81-.58-2.71-.87-.1-2.23-.21-4.46-.31-6.68,2.39,0,4.78,0,7.18,0-.17,2.18-.33,4.37-.5,6.55-1.22.33-2.44.67-3.66,1Z"/>
  <path class="cls-6" d="M126.87,132.98c.06-2,.11-4,.17-6-.06,2-.11,4-.17,6Z"/>
  <path class="cls-13" d="M64.13,144.1c-.44-4.7-.87-9.4-1.31-14.1.02-5.29.04-10.59.07-15.88-.01-3.74-.03-7.48-.04-11.22.21-13.92.43-27.83.64-41.75,4.81-4.61,9.61-9.22,14.42-13.84,2.08,2.54,4.16,5.08,6.25,7.62-4.12,4.66-8.32,9.26-12.29,14.05-.84,1.01-1.16,2.73-1.16,4.12-.03,28.24.07,56.48-.07,84.72,0,2.06-1.63,4.11-2.5,6.17-1.31.74-2.61,1.49-3.92,2.23-.35-.05-.7-.1-1.05-.16-.05-3.34-.11-6.69-.16-10.03.23-.23.33-.51.3-.84,2.54-3.53,3.74-7.16.83-11.1Z"/>
  <path class="cls-15" d="M63.16,166.06c.35.05.7.1,1.05.16-.33.27-.66.54-.99.81-.08-.32-.09-.64-.05-.96Z"/>
  <path class="cls-15" d="M216.13,41.57c-1.66-1.48-3.33-2.96-4.99-4.44.67-1.61,1.34-3.22,2.01-4.83,1.39,1.54,2.78,3.08,4.18,4.61-.4,1.55-.8,3.1-1.2,4.65Z"/>
  <path class="cls-25" d="M108.82,198.05c.13,1.32.27,2.64.4,3.97-.38.56-.75,1.12-1.13,1.67.24-1.88.49-3.76.73-5.64Z"/>
  <path class="cls-12" d="M70.61,183.04c.08.23.19.46.23.7.01.07-.19.17-.3.26.02-.32.05-.64.07-.96Z"/>
  <path class="cls-25" d="M84.15,54.93c-2.08-2.54-4.16-5.08-6.25-7.62,1.44-1.43,2.87-2.86,4.31-4.28,1.55,0,3.1.01,4.65.02.22.6.44,1.21.65,1.81-4.79,2.36-.93,3.61.66,5.14-.09.22-.15.45-.17.68-.99,1.35-1.98,2.71-2.97,4.06-.3.05-.6.1-.89.18Z"/>
  <path class="cls-26" d="M73.18,176.96c-1.33-.26-2.67-.52-4-.78-.02-2.26-.64-4.79.2-6.67.36-.82,3.7-.33,5.68-.43.33.42.66.85.99,1.27.11.56.22,1.12.33,1.68-.01.33-.02.66-.03.99-1.05,1.32-2.11,2.64-3.16,3.96Z"/>
  <path class="cls-22" d="M76.34,173.01c.01-.33.02-.66.03-.99.09.23.22.46.26.7.01.07-.19.19-.29.28Z"/>
  <path class="cls-22" d="M76.05,170.35c-.33-.42-.66-.85-.99-1.27.33.42.66.85.99,1.27Z"/>
  <path class="cls-18" d="M86.87,43.06c-1.55,0-3.1-.01-4.65-.02.82-8.41,4.99-11.67,12.98-10.14,7.9,4.51,6.61,13.01-1.63,17.11-.63.31-1.61-.09-2.43-.15.34-.96.68-1.92,1.02-2.88,1.28-1.21,3.66-2.49,3.6-3.62-.12-2.13-1.24-5.57-2.68-6-4.31-1.3-5.63,2.12-6.2,5.71Z"/>
  <path class="cls-26" d="M92.16,46.97c-.34.96-.68,1.92-1.02,2.88-.99.05-1.97.11-2.96.16-1.59-1.54-5.45-2.79-.66-5.14,1.55.7,3.09,1.4,4.64,2.1Z"/>
  <path class="cls-4" d="M160.34,14.97c3.52,2.48,6.94,4.98,6.82,9.99-.12,4.95-1.68,9.15-6.25,11.53-4.8,2.5-9.5,2.29-13.68-1.54,0-2.82-.2-5.6,4.26-4.37,1.98.55,5.76.8,6.07.07.96-2.29.67-5.12.86-7.73-.16-.25-.24-.53-.24-.83-.26-.35-.52-.69-.78-1.04l-.15-.18,3.11-5.9Z"/>
  <path class="cls-16" d="M160.34,14.97c-1.04,1.97-2.07,3.93-3.11,5.9-1.86.11-3.73.23-5.59.34-2.23-.44-4.46-.88-6.68-1.33.03-.31.14-.58.36-.81.28-.38.56-.75.83-1.13,4-4.49,8.73-5.46,14.19-2.97Z"/>
  <path class="cls-8" d="M144.96,19.88c2.23.44,4.46.88,6.68,1.33-.04,1.56-.08,3.13-.12,4.69-.94.78-2,2.32-2.8,2.2-3.81-.59-3.49,2-3.73,4.27-2.51-4.15-2.61-8.32-.04-12.48Z"/>
  <path class="cls-16" d="M145,32.36c.24-2.27-.08-4.86,3.73-4.27.8.12,1.86-1.42,2.8-2.2,4.09,3.15,5.87.97,6.88-2.98-.19,2.62.11,5.44-.86,7.73-.31.73-4.08.47-6.07-.07-4.45-1.23-4.25,1.55-4.26,4.37-.74-.86-1.48-1.72-2.22-2.58Z"/>
  <path class="cls-8" d="M146.15,17.94c-.28.38-.56.75-.83,1.13.28-.38.56-.75.83-1.13Z"/>
  <path class="cls-2" d="M62.85,102.9c.01,3.74.03,7.48.04,11.22-2.81-2.65-2.83-7.68-.04-11.22Z"/>
  <path class="cls-3" d="M53.4,89.05c1.22.32,2.43.64,3.65.97-.02,3.33-.05,6.66-.07,9.99-5.01,3.04-5.02,6.93-.03,10.01,0,5.33-.02,10.65-.02,15.98-1.19,0-2.38,0-3.57,0-1.46-1.66-2.91-3.31-4.37-4.97.02-5.68.03-11.36.05-17.04,0-1.67,0-3.33-.01-5,1.46-3.31,2.92-6.63,4.37-9.94Z"/>
  <path class="cls-25" d="M50.69,129.52c.22.82.44,1.65.65,2.47-2.39,0-4.78,0-7.17,0-.35-.68-.7-1.36-1.04-2.04,2.28-4.45,4.9-2.89,7.56-.43Z"/>
  <path class="cls-7" d="M56.95,110.02c-5-3.09-4.99-6.98.03-10.01,0,3.34-.02,6.68-.03,10.01Z"/>
  <path class="cls-2" d="M64.13,144.1c2.91,3.94,1.71,7.57-.83,11.1-1.79-.78-3.59-1.56-5.38-2.34,1.12-2.3,2.23-4.6,3.35-6.9.96-.62,1.91-1.24,2.87-1.86Z"/>
  <path class="cls-10" d="M92.16,46.97c-1.55-.7-3.09-1.4-4.64-2.1-.22-.6-.44-1.21-.65-1.81.57-3.59,1.89-7.01,6.2-5.71,1.44.43,2.56,3.87,2.68,6,.06,1.13-2.32,2.41-3.6,3.62Z"/>
  <path class="cls-1" d="M158.4,22.91c-1.02,3.95-2.8,6.13-6.88,2.98.04-1.56.08-3.13.12-4.69,1.86-.11,3.73-.23,5.59-.34,0,0,.15.18.15.18.26.35.52.69.78,1.04,0,.3.07.58.24.83Z"/>
  <path class="cls-16" d="M158.16,22.08c-.26-.35-.52-.69-.78-1.04.26.35.52.69.78,1.04Z"/>
</svg>